# xmcd CD database file
#
# Track frame offsets:
#	150
#	22921
#	38032
#	57929
#	76981
#	95234
#	115600
#	134362
#	153901
#	169743
#	184946
#	201403
#	220178
#	236087
#	255602
#	275982
#	292429
#	307765
#	329823
#
# Disc length: 4674 seconds
#
# Revision: 0
# Processed by: cddbd v1.5.2PL0 Copyright (c) Steve Scherf et al.
# Submitted via: CDex 1.70beta2
#
DISCID=21124013
DTITLE=Various Artist - Merengues De Oro CD 3
DYEAR=2009
DGENRE=Merengue
TTITLE0=Montreal - Si Tú No Estás
TTITLE1=Rhapsodia - Yo Sin Ti
TTITLE2=Fantasmas Del Caribe - Carmin
TTITLE3=Diveana - Y Te Vas
TTITLE4=Roberto Antonio - Mentirosa
TTITLE5=Miguel Moly - Como No Vas A Quererla
TTITLE6=Los Melódicos - La Cacerola
TTITLE7=Natusha - Tú La Tienes Que Pagar
TTITLE8=Juan Luis Guerra - Ella Dice
TTITLE9=Los Tupamaros - Adios
TTITLE10=Los Exelentes - Tenerte
TTITLE11=Carolina - Un Sabor A Nada
TTITLE12=Banda Country - Solo Para Ti
TTITLE13=July Mateus - Oye
TTITLE14=Hermanos Rosario - Hola
TTITLE15=Pekos Kanvas - Todo El Mundo Necesita Amor
TTITLE16=Kaoma - La Lambada
TTITLE17=Alex Bueno - Que Cara Más Bonita
TTITLE18=Miguel Moly - Junto A Tu Corazón
EXTD=YEAR: 2009
EXTT0=
EXTT1=
EXTT2=
EXTT3=
EXTT4=
EXTT5=
EXTT6=
EXTT7=
EXTT8=
EXTT9=
EXTT10=
EXTT11=
EXTT12=
EXTT13=
EXTT14=
EXTT15=
EXTT16=
EXTT17=
EXTT18=
PLAYORDER=
